<?xml version="1.0" encoding="utf-8"?>
<!-- Generator: Adobe Illustrator 16.0.0, SVG Export Plug-In . SVG Version: 6.00 Build 0)  -->
<!DOCTYPE svg PUBLIC "-//W3C//DTD SVG 1.1//EN" "http://www.w3.org/Graphics/SVG/1.1/DTD/svg11.dtd">
<svg version="1.1" id="Layer_1" pointer-events="none"
	 xmlns="http://www.w3.org/2000/svg" xmlns:xlink="http://www.w3.org/1999/xlink" x="0px" y="0px" width="20.02px"
	 height="26.667px" viewBox="38.139 34.814 20.02 26.667" enable-background="new 38.139 34.814 20.02 26.667" xml:space="preserve"
	>
<path d="M53.982,35.647v7.422c-1.439,0.374-2.511,1.671-2.511,3.226c0,1.555,1.071,2.853,2.511,3.226v11.126
	c0,0.46,0.373,0.833,0.833,0.833s0.833-0.373,0.833-0.833V49.521c1.439-0.374,2.51-1.671,2.51-3.226c0-1.554-1.07-2.852-2.51-3.226
	v-7.422c0-0.46-0.373-0.833-0.833-0.833S53.982,35.187,53.982,35.647z M56.492,46.295c0,0.925-0.752,1.677-1.677,1.677
	s-1.677-0.752-1.677-1.677c0-0.924,0.752-1.677,1.677-1.677S56.492,45.371,56.492,46.295z M48.982,60.647v-1.784
	c1.439-0.374,2.51-1.671,2.51-3.226s-1.071-2.853-2.51-3.225V35.647c0-0.46-0.373-0.833-0.833-0.833
	c-0.46,0-0.833,0.373-0.833,0.833v16.766c-1.439,0.372-2.51,1.67-2.51,3.225s1.071,2.852,2.51,3.226v1.784
	c0,0.46,0.373,0.833,0.833,0.833C48.609,61.48,48.982,61.107,48.982,60.647z M46.472,55.638c0-0.925,0.752-1.677,1.677-1.677
	c0.925,0,1.677,0.752,1.677,1.678c-0.034,0.926-0.812,1.648-1.737,1.615C47.209,57.222,46.504,56.518,46.472,55.638L46.472,55.638z
	 M42.315,60.647V44.501c1.473-0.378,2.505-1.704,2.51-3.225c-0.005-1.521-1.037-2.847-2.51-3.225v-2.404
	c0-0.46-0.373-0.833-0.833-0.833s-0.833,0.373-0.833,0.833v2.404c-1.473,0.378-2.505,1.704-2.51,3.225
	c0.004,1.521,1.037,2.847,2.51,3.225v16.146c0,0.46,0.373,0.833,0.833,0.833S42.315,61.107,42.315,60.647z M39.806,41.276
	c0.033-0.926,0.812-1.649,1.737-1.616c0.879,0.032,1.583,0.737,1.616,1.616c0,0.923-0.752,1.675-1.677,1.675
	S39.806,42.199,39.806,41.276L39.806,41.276z"/>
</svg>
