<?xml version="1.0" encoding="utf-8"?>
<!-- Generator: Adobe Illustrator 16.0.0, SVG Export Plug-In . SVG Version: 6.00 Build 0)  -->
<!DOCTYPE svg PUBLIC "-//W3C//DTD SVG 1.1//EN" "http://www.w3.org/Graphics/SVG/1.1/DTD/svg11.dtd">
<svg version="1.1" id="Layer_1" xmlns="http://www.w3.org/2000/svg" xmlns:xlink="http://www.w3.org/1999/xlink" x="0px" y="0px"
	 width="44px" height="54px" viewBox="3 -2.125 44 54" enable-background="new 3 -2.125 44 54" xml:space="preserve">
<path d="M43,25c0-2.206-1.794-4-4-4s-4,1.794-4,4s1.794,4,4,4S43,27.206,43,25z M40,3c0-0.552-0.448-1-1-1s-1,0.448-1,1v16.09
	c0.326-0.055,0.659-0.09,1-0.09s0.674,0.035,1,0.09V3z M40,30.91C39.674,30.965,39.341,31,39,31s-0.674-0.035-1-0.09V47
	c0,0.553,0.448,1,1,1s1-0.447,1-1V30.91z M29,39c0-2.206-1.794-4-4-4s-4,1.794-4,4s1.794,4,4,4S29,41.206,29,39z M26,3
	c0-0.552-0.448-1-1-1s-1,0.448-1,1v30.09c0.326-0.055,0.659-0.09,1-0.09s0.674,0.035,1,0.09V3z M26,44.91
	C25.674,44.965,25.341,45,25,45s-0.674-0.035-1-0.09V47c0,0.553,0.448,1,1,1s1-0.447,1-1V44.91z M15,14c0-2.206-1.794-4-4-4
	s-4,1.794-4,4s1.794,4,4,4S15,16.206,15,14z M12,3c0-0.552-0.447-1-1-1s-1,0.448-1,1v5.09C10.326,8.035,10.658,8,11,8
	s0.674,0.035,1,0.09V3z M12,19.91C11.674,19.965,11.342,20,11,20s-0.674-0.035-1-0.09V47c0,0.553,0.447,1,1,1s1-0.447,1-1V19.91z"/>
</svg>
