<svg xmlns="http://www.w3.org/2000/svg" width="270.474" height="50.304" viewBox="0.336 0.864 270.474 50.304"><path d="M31.104 15.36c0 3.328-.896 6.504-2.688 9.527-1.792 3.024-4.232 5.457-7.32 7.297-3.089 1.84-6.408 2.76-9.96 2.76-7.2 0-10.8-2.527-10.8-7.584 0-3.072 1.072-6.304 3.216-9.696a24.348 24.348 0 0 1 3.888-4.872c1.504-1.456 3.36-2.655 5.568-3.6 2.208-.943 4.56-1.416 7.056-1.416 3.808 0 6.6.616 8.376 1.848 1.776 1.232 2.664 3.144 2.664 5.736zm-2.736-.433c0-4.287-2.736-6.432-8.208-6.432-2.72 0-5.448 1.088-8.184 3.264-2.736 2.177-4.937 4.769-6.6 7.776-1.664 3.008-2.496 5.76-2.496 8.256 0 4.289 2.624 6.433 7.872 6.433 3.136 0 6.088-.992 8.856-2.977 2.768-1.983 4.92-4.456 6.456-7.416 1.536-2.958 2.304-5.927 2.304-8.904zm-6.96-11.76c-.641 0-1.232-.352-1.776-1.056 0-.063.08-.151.24-.264.16-.112.304-.217.432-.312.127-.096.255-.184.384-.264.127-.08.24-.151.336-.216.256-.128.416-.192.48-.192.64.384 1.056.576 1.248.576s.36-.016.504-.048.216.032.216.191c-.032.129-.128.288-.288.48-.897.738-1.488 1.105-1.776 1.105zm5.568 0c-1.184 0-1.776-.367-1.776-1.104 0-.16.295-.4.888-.721.592-.319.904-.479.936-.479.032 0 .208.096.528.288.32.191.576.288.768.288.192 0 .36-.016.504-.048.144-.032.216.032.216.191-.032.129-.128.288-.288.48-.896.738-1.488 1.105-1.776 1.105zM30.911 32.208c.8-.415 1.528-.624 2.184-.624.655 0 1.144.024 1.464.072.32.048.784.296 1.392.744.64.479 1.6 1.328 2.88 2.544 2.368 2.367 4.144 3.552 5.328 3.552.576-.064 1.016-.216 1.32-.456s.392-.536.264-.888a2.976 2.976 0 0 0-1.152-1.681c-.128-.128-.096-.232.096-.312.192-.08.336-.089.432-.024.928.448 1.392 1.216 1.392 2.305 0 .512-.176 1.031-.528 1.56-.353.528-.8.904-1.344 1.128-.544.224-1.024.336-1.44.336l-.912-.144c-.544-.161-1.176-.593-1.896-1.296a45.845 45.845 0 0 1-2.328-2.473 128.511 128.511 0 0 1-1.632-1.872l-.504-.6c-.08-.096-.232-.271-.456-.528-.224-.255-.4-.424-.528-.504a6.408 6.408 0 0 1-.504-.359 2.483 2.483 0 0 0-.552-.336c-.384-.16-.864-.24-1.44-.24s-1.192.224-1.848.672c-.656.448-1.064.952-1.224 1.512s-.304.952-.432 1.176c-.257.353-.512.416-.768.192-.256-.225-.384-.425-.384-.6 0-.177.113-.449.336-.816.224-.367.943-1.2 2.16-2.496 1.216-1.296 2.152-2.224 2.808-2.784.655-.56 1.792-1.56 3.408-3 1.615-1.439 2.936-2.575 3.96-3.407-4.416 0-6.864.336-7.344 1.008-.288.353-.536.496-.744.432-.208-.063-.2-.208.024-.432.223-.224.64-.864 1.248-1.92.096.064.607.096 1.536.096l6.384-.144c.255 0 .48.184.672.552s.304.696.336.983c-4.16 2.977-6.497 4.673-7.008 5.089-.512.415-2.063 1.743-4.656 3.983z"/><path d="M45.311 21.215l1.488.049c1.248-1.696 2.496-3.92 3.744-6.673.288-.031.736-.216 1.344-.552.607-.336 1.048-.64 1.32-.912.271-.271.448-.408.528-.408.079 0 .12.041.12.12 0 .081-.128.265-.384.553-.256.287-.888 1.24-1.896 2.855a52.414 52.414 0 0 0-2.76 5.017h3.888c.319 0 .496.048.528.144.032.096-.072.185-.312.264-.24.08-.464.152-.672.216-.208.065-.665.129-1.368.192-1.568.096-2.537.408-2.904.937-.368.527-1 1.88-1.896 4.056-1.664 4.032-1.92 6.048-.768 6.048.992 0 2.815-1.536 5.472-4.608l.912-1.151c.063.096.096.248.096.456s-.176.552-.528 1.032c-2.944 3.775-5.6 5.663-7.968 5.663-.768 0-1.152-.304-1.152-.911 0-.769.624-2.4 1.872-4.896l2.592-5.808c-3.264 3.968-4.928 6-4.992 6.096-.224.32-.336.288-.336-.096 0-.256.08-.48.24-.672 2.176-2.72 3.68-4.624 4.512-5.713-.288 0-1.152.081-2.592.24-.32 0-.2-.256.36-.768s.952-.769 1.176-.769h.336z"/><path d="M67.967 21.744c-.96.288-2.057 1.769-3.288 4.44-1.232 2.672-1.848 4.496-1.848 5.472 0 .977.24 1.464.72 1.464.576 0 1.52-.512 2.832-1.536a20.507 20.507 0 0 0 3.792-3.84c.255-.288.399-.447.432-.479a.985.985 0 0 1 .096.6c-.032.208-.24.536-.624.984-2.816 3.775-5.456 5.663-7.92 5.663-1.121 0-1.68-.432-1.68-1.296 0-.575.208-1.464.624-2.664.416-1.199.799-2.136 1.152-2.808-3.136 4.512-6.032 6.768-8.688 6.768-.768 0-1.152-.304-1.152-.911 0-.769.624-2.4 1.872-4.896.288-.576.672-1.359 1.152-2.352s.808-1.648.984-1.969c.176-.319.264-.552.264-.695 0-.145-.048-.217-.144-.217-.224 0-.848.465-1.872 1.393-1.024.929-2.208 2.304-3.552 4.128-.224.32-.336.288-.336-.096 0-.256.08-.48.24-.672 1.312-1.76 2.376-3.097 3.192-4.009.816-.912 1.264-1.416 1.344-1.512.08-.096.256-.264.528-.504.271-.24.488-.408.648-.504a3.9 3.9 0 0 1 2.04-.576c.72 0 1.08.272 1.08.816 0 .416-.272 1.024-.816 1.823-.544.801-1.368 2.28-2.472 4.44s-1.656 3.521-1.656 4.08c0 .561.224.84.672.84.607 0 1.567-.624 2.88-1.872 2.016-1.92 4.096-4.928 6.24-9.023.288-.512.48-.769.576-.769h.672c1.023 0 1.824-.144 2.4-.432.127-.064.208-.016.24.144 0 .257-.208.449-.624.577zm-6.576-5.088c-1.184 0-1.776-.367-1.776-1.104 0-.096.416-.399 1.248-.911l.624-.288c.64.384 1.056.575 1.248.575.192 0 .36-.016.504-.048.144-.031.216.032.216.192-.032.128-.128.288-.288.479-.896.738-1.488 1.105-1.776 1.105zm5.568 0c-1.184 0-1.776-.367-1.776-1.104 0-.159.295-.399.888-.72.591-.319.903-.479.936-.479.032 0 .208.096.528.288.319.191.576.287.768.287.192 0 .36-.016.504-.048.144-.031.216.032.216.192-.032.128-.128.288-.288.479-.896.738-1.488 1.105-1.776 1.105z"/><path d="M82.222 24.864c0-1.472-.456-2.208-1.368-2.208-.912 0-2.208.968-3.888 2.904s-2.952 4.008-3.816 6.216l-1.008 2.688c-.192 0-.576.097-1.152.288-.576.192-.88.288-.912.288-.16 0-.168-.144-.024-.432s.416-.912.816-1.872c.4-.96.888-2.176 1.464-3.648 1.12-2.815 1.872-4.672 2.256-5.567a69.342 69.342 0 0 0-4.608 5.472c-.224.32-.336.288-.336-.096 0-.256.08-.48.24-.672 2.272-2.816 4.016-5.104 5.232-6.864 1.6-.224 2.528-.448 2.784-.672.256-.224.416-.336.48-.336s.104.064.12.191c.016.129-.072.305-.264.528-.192.225-1.265 2.128-3.216 5.712.864-1.312 1.959-2.607 3.288-3.888 1.327-1.28 2.463-1.92 3.408-1.92.943 0 1.56.4 1.848 1.199.127.161.192.336.192.528s-.032.44-.096.744a6.896 6.896 0 0 1-.192.744c-.353.8-.608 1.28-.768 1.439-.096.161-.256.257-.48.288a4.344 4.344 0 0 1-.096-.096c.064-.35.096-.67.096-.958zM95.182 20.879c.704 0 1.056.272 1.056.816 0 .416-.128.848-.384 1.296-.256.448-.424.744-.504.888a3.024 3.024 0 0 1-.192.312c-.048.064-.12.072-.216.023-.096-.048-.144-.104-.144-.168 0-.607-.496-.912-1.488-.912s-2.256.801-3.792 2.4c.672 3.681 1.328 6.017 1.968 7.008.256.416.72.624 1.392.624 1.216-.031 3.328-1.983 6.336-5.855.127.16.168.344.12.552s-.28.568-.696 1.08c-1.568 1.984-3.041 3.521-4.416 4.607-.864.705-1.728 1.057-2.592 1.057-.864 0-1.552-.271-2.064-.816-.544-.735-1.184-2.784-1.92-6.144-1.952 2.464-3.2 4.512-3.744 6.144-.16.384-.592.601-1.296.648-.704.048-1.056-.041-1.056-.265 0-.063.064-.231.192-.504.127-.271.543-1.216 1.248-2.832a208.103 208.103 0 0 1 1.464-3.312c.271-.592.711-1.567 1.32-2.928a85.907 85.907 0 0 1 1.536-3.288c1.632-3.104 2.768-5.232 3.408-6.385 1.504-2.719 3.312-5.056 5.424-7.008 2.112-1.951 4.192-2.928 6.24-2.928.512 0 .968.137 1.368.408.4.272.6.664.6 1.176v1.392c0 .129-.072.192-.216.192-.144 0-.216-.031-.216-.096 0-.864-.608-1.296-1.824-1.296a9.44 9.44 0 0 0-3.552.695 8.202 8.202 0 0 0-2.976 2.04c-.833.896-1.712 2.064-2.64 3.504-2.112 3.265-4.608 8.753-7.488 16.464a43.481 43.481 0 0 1 2.064-2.592c-.064-.544.04-.991.312-1.344.271-.352.552-.68.84-.984.288-.304.48-.52.576-.647l.144.815c2.496-2.556 4.431-3.837 5.808-3.837z"/><path d="M121.966 15.936c.544-.896.816-1.904.816-3.024s-.176-1.999-.528-2.64c-.608-1.024-1.792-1.536-3.552-1.536-3.264 0-6.448 1.312-9.552 3.936-2.272 2.017-4.136 4.425-5.592 7.225-1.457 2.8-2.184 5.296-2.184 7.487 0 2.192.504 3.841 1.512 4.944 1.008 1.104 2.296 1.769 3.864 1.992.832.127 1.647.191 2.448.191 2.432 0 4.735-.432 6.912-1.296 3.487-1.344 6.288-3.327 8.4-5.951.319-.385.48-.385.48 0 0 .224-.128.512-.384.863-2.016 2.688-4.721 4.736-8.112 6.145-2.4.991-4.944 1.487-7.632 1.487-4.352 0-7.36-1.151-9.024-3.456-.864-1.183-1.296-2.655-1.296-4.416 0-3.007.832-5.943 2.496-8.808a24.38 24.38 0 0 1 6.432-7.271c3.36-2.528 6.992-3.792 10.896-3.792 1.76 0 3.288.312 4.584.936s1.944 1.448 1.944 2.472c0 .449-.296 1.16-.888 2.137-.593.977-.968 1.688-1.128 2.136-.064.225-.305.353-.72.384-.129-.033-.192-.081-.192-.145z"/><path d="M138.669 27.264c.064.064.097.191.097.384 0 .191-.224.592-.672 1.2-2.849 3.775-5.489 5.663-7.92 5.663-.768 0-1.152-.304-1.152-.911 0-1.12.624-2.656 1.872-4.608a50.063 50.063 0 0 1-3.84 3.624c-1.44 1.232-2.784 1.848-4.032 1.848-.576 0-.864-.352-.864-1.056 0-.16.016-.271.048-.336.224-1.824.96-3.744 2.208-5.76 2.496-4.032 5.088-6.048 7.776-6.048h5.521c.16 0 .24.064.24.191 0 .257-.145.384-.433.384-.448 0-1.008.521-1.68 1.561-.672 1.04-1.56 2.64-2.664 4.8s-1.656 3.521-1.656 4.08c0 .561.224.84.672.84.736 0 1.76-.64 3.072-1.92a40.72 40.72 0 0 0 1.584-1.729c.352-.415.583-.688.696-.815.111-.128.487-.592 1.127-1.392zm-5.136-4.465c0-.607-.408-.912-1.224-.912s-1.72.465-2.712 1.393c-.992.929-2.072 2.424-3.24 4.488-1.169 2.063-1.752 3.56-1.752 4.487 0 .385.128.576.384.576.928 0 2.583-1.416 4.968-4.248 2.384-2.832 3.576-4.759 3.576-5.784z"/><path d="M152.301 21.936c0 .416-.264 1.008-.792 1.775-.527.769-1.32 2.217-2.376 4.345s-1.584 3.472-1.584 4.031c0 .561.231.84.696.84.463 0 1.072-.295 1.824-.888a15.296 15.296 0 0 0 2.016-1.896c.592-.673 1.384-1.616 2.376-2.832.063.096.097.239.097.432s-.209.561-.625 1.104c-1.632 2.208-3.008 3.743-4.127 4.607-1.121.864-2.129 1.296-3.025 1.296-1.023 0-1.535-.504-1.535-1.512s.52-2.544 1.561-4.608a150.532 150.532 0 0 0 2.52-5.208c.319-.672.096-.799-.672-.384-3.648 2.272-6.48 6.08-8.496 11.424-.192 0-.568.104-1.129.312-.56.208-.887.312-.983.312-.128 0-.12-.152.024-.456.144-.304.415-.936.815-1.896.399-.96.888-2.176 1.464-3.648 1.12-2.815 1.873-4.672 2.256-5.567a69.324 69.324 0 0 0-4.607 5.472c-.225.32-.336.288-.336-.096 0-.256.08-.48.24-.672 2.271-2.816 4.016-5.104 5.231-6.864 1.601-.224 2.528-.448 2.784-.672s.416-.336.48-.336c.063 0 .104.064.119.191.016.129-.08.312-.287.552-.209.24-1.465 2.505-3.769 6.792a27.3 27.3 0 0 1 5.376-5.327c1.312-.96 2.384-1.44 3.217-1.44.831.001 1.247.273 1.247.817z"/><path d="M170.444 21.12l3.84.145h9.12l-.528.575c-1.312 0-2.256.368-2.832 1.104a9.438 9.438 0 0 0-.888 1.464c-.239.496-.416.856-.528 1.08-.112.225-.24.561-.384 1.008-.144.448-.239.761-.288.937-.048.176-.16.527-.336 1.056s-.32 1-.432 1.416c-.113.416-.377 1.4-.792 2.952a125.388 125.388 0 0 1-.96 3.432 58.544 58.544 0 0 1-1.057 3.048c-.479 1.296-.943 2.359-1.392 3.192-2.112 3.744-4.864 6.288-8.256 7.632-1.536.607-2.96.912-4.272.912s-2.592-.28-3.84-.84c-1.248-.561-2.129-1.385-2.64-2.473a4.158 4.158 0 0 1-.479-1.968v-1.536c0-.479.191-.72.575-.72.063 0 .097.031.097.096l-.097 1.2c0 1.44.456 2.552 1.368 3.336s2.104 1.176 3.576 1.176c3.84 0 7.231-1.855 10.176-5.567 2.24-2.784 4.08-5.984 5.52-9.601.192-.543.521-1.423.984-2.64.464-1.216.792-2.048.984-2.496-1.28 1.889-3.185 3.504-5.713 4.848-2.527 1.345-4.976 2.017-7.344 2.017h-.191c-2.656 0-4.928-.688-6.816-2.064-1.889-1.375-2.832-3.463-2.832-6.264 0-2.8.832-5.632 2.496-8.496a24.395 24.395 0 0 1 6.432-7.271c3.36-2.528 6.992-3.792 10.896-3.792 1.76 0 3.288.312 4.584.936s1.943 1.448 1.943 2.472c0 .449-.295 1.16-.887 2.137-.594.977-.969 1.688-1.129 2.136-.064.225-.305.353-.72.384-.128-.031-.192-.079-.192-.144.545-.896.816-1.904.816-3.024s-.176-1.999-.527-2.64c-.609-1.024-1.793-1.536-3.553-1.536-3.264 0-6.448 1.312-9.552 3.936-2.272 2.017-4.136 4.425-5.593 7.225-1.456 2.8-2.184 5.416-2.184 7.848 0 2.433.664 4.248 1.992 5.448s3 1.8 5.016 1.8h.145c3.615 0 6.703-1.208 9.264-3.624s4.465-5.479 5.713-9.192h-4.945c-4.096 0-6.144.944-6.144 2.832 0 .513.079.929.24 1.248l-.433.288c-.863-1.439-1.295-2.239-1.295-2.399v-.48c0-.735.191-1.279.576-1.632.77-.613 2.002-.917 3.698-.917zM193.004 22.896c0 1.728-.864 3.84-2.593 6.336-.672.896-1.279 1.601-1.823 2.111 2.112 0 4.063-1.183 5.856-3.552.159-.159.239-.104.239.168s-.064.488-.192.648c-1.631 2.272-3.488 3.408-5.567 3.408a7.82 7.82 0 0 1-.864-.049c-1.793 1.665-3.809 2.496-6.048 2.496-1.312 0-1.968-.56-1.968-1.68 0-1.824.879-3.952 2.64-6.384 1.12-1.6 2.479-2.863 4.08-3.792 1.696-1.057 3.136-1.584 4.32-1.584 1.279.002 1.92.626 1.92 1.874zm-2.304.048c0-.769-.289-1.152-.864-1.152-.192 0-.561.104-1.104.312s-1.224.736-2.039 1.584c-.816.848-1.593 1.928-2.328 3.239-1.377 2.272-2.064 3.96-2.064 5.064s.288 1.656.863 1.656c.448 0 .944-.151 1.488-.456.545-.304.977-.616 1.297-.937.991-1.056 2.031-2.487 3.119-4.296 1.087-1.806 1.632-3.478 1.632-5.014zm-.385-6.288c-1.184 0-1.775-.367-1.775-1.104 0-.096.415-.399 1.248-.911l.623-.288c.641.384 1.057.575 1.248.575.193 0 .361-.016.504-.048.145-.031.217.032.217.192-.032.128-.129.288-.288.479-.896.738-1.488 1.105-1.777 1.105zm5.569 0c-.641 0-1.232-.352-1.775-1.056 0-.064.079-.152.239-.265.159-.111.304-.216.433-.312.127-.097.256-.184.383-.265.129-.079.256-.151.385-.216.191-.127.336-.191.432-.191.641.384 1.057.575 1.248.575.192 0 .36-.016.504-.048.145-.031.217.032.217.192-.033.128-.129.288-.289.479-.898.74-1.489 1.107-1.777 1.107zM206.348 20.879c.703 0 1.055.272 1.055.816 0 .416-.127.848-.383 1.296-.257.448-.425.744-.504.888-.081.145-.145.248-.192.312s-.12.072-.216.023c-.096-.048-.145-.104-.145-.168 0-.607-.496-.912-1.488-.912s-2.256.801-3.791 2.4c.672 3.681 1.327 6.017 1.967 7.008.256.416.721.624 1.393.624 1.216-.031 3.328-1.983 6.336-5.855.127.16.168.344.12.552s-.28.568-.696 1.08c-1.568 1.984-3.04 3.521-4.416 4.607-.863.705-1.728 1.057-2.592 1.057-.863 0-1.553-.271-2.064-.816-.544-.735-1.184-2.784-1.92-6.144-1.951 2.464-3.199 4.512-3.744 6.144-.16.384-.592.601-1.295.648-.705.048-1.057-.041-1.057-.265 0-.063.064-.231.192-.504.128-.271.544-1.216 1.248-2.832a208.103 208.103 0 0 1 1.464-3.312c.271-.592.711-1.567 1.32-2.928a86.125 86.125 0 0 1 1.535-3.288c1.633-3.104 2.768-5.232 3.408-6.385 1.504-2.719 3.312-5.056 5.424-7.008 2.112-1.951 4.192-2.928 6.24-2.928.512 0 .968.137 1.368.408.399.272.601.664.601 1.176v1.392c0 .129-.072.192-.217.192-.144 0-.216-.031-.216-.096 0-.864-.608-1.296-1.823-1.296a9.45 9.45 0 0 0-3.553.695 8.206 8.206 0 0 0-2.977 2.04c-.832.896-1.711 2.064-2.64 3.504-2.112 3.265-4.608 8.753-7.487 16.464a43.496 43.496 0 0 1 2.063-2.592c-.064-.544.04-.991.312-1.344.271-.352.553-.68.84-.984.289-.304.48-.52.576-.647l.145.815c2.497-2.556 4.432-3.837 5.809-3.837zM221.899 20.879c.703 0 1.056.272 1.056.816 0 .416-.128.848-.384 1.296s-.424.744-.504.888c-.08.145-.145.248-.191.312-.049.064-.121.072-.217.023-.096-.048-.145-.104-.145-.168 0-.607-.496-.912-1.487-.912-.992 0-2.256.801-3.792 2.4.672 3.681 1.328 6.017 1.968 7.008.256.416.72.624 1.392.624 1.217-.031 3.328-1.983 6.336-5.855.128.16.168.344.121.552-.049.208-.281.568-.696 1.08-1.568 1.984-3.04 3.521-4.416 4.607-.864.705-1.728 1.057-2.593 1.057-.863 0-1.552-.271-2.063-.816-.544-.735-1.185-2.784-1.92-6.144-1.952 2.464-3.2 4.512-3.744 6.144-.16.384-.593.601-1.296.648-.704.048-1.057-.041-1.057-.265 0-.063.064-.231.193-.504.127-.271.543-1.216 1.248-2.832a221.336 221.336 0 0 1 1.463-3.312c.271-.592.712-1.567 1.32-2.928a84.393 84.393 0 0 1 1.536-3.288c1.632-3.104 2.768-5.232 3.407-6.385 1.504-2.719 3.312-5.056 5.425-7.008 2.112-1.951 4.192-2.928 6.239-2.928.512 0 .969.137 1.369.408.399.272.6.664.6 1.176v1.392c0 .129-.072.192-.217.192-.143 0-.215-.031-.215-.096 0-.864-.609-1.296-1.824-1.296a9.45 9.45 0 0 0-3.553.695 8.21 8.21 0 0 0-2.976 2.04c-.833.896-1.712 2.064-2.64 3.504-2.112 3.265-4.608 8.753-7.488 16.464a43.89 43.89 0 0 1 2.064-2.592c-.064-.544.039-.991.312-1.344.271-.352.552-.68.84-.984a9.52 9.52 0 0 0 .576-.647l.144.815c2.497-2.556 4.432-3.837 5.809-3.837z"/><path d="M240.091 27.264c.063.064.096.191.096.384 0 .191-.225.592-.672 1.2-2.849 3.775-5.488 5.663-7.92 5.663-.768 0-1.152-.304-1.152-.911 0-1.12.624-2.656 1.872-4.608a49.695 49.695 0 0 1-3.84 3.624c-1.44 1.232-2.784 1.848-4.032 1.848-.576 0-.863-.352-.863-1.056 0-.16.016-.271.047-.336.225-1.824.961-3.744 2.209-5.76 2.496-4.032 5.088-6.048 7.775-6.048h5.52c.16 0 .24.064.24.191 0 .257-.144.384-.432.384-.448 0-1.008.521-1.68 1.561s-1.561 2.64-2.664 4.8-1.656 3.521-1.656 4.08c0 .561.224.84.672.84.736 0 1.76-.64 3.072-1.92a41.416 41.416 0 0 0 1.584-1.729c.352-.415.584-.688.695-.815.112-.128.488-.592 1.129-1.392zm-5.137-4.465c0-.607-.408-.912-1.224-.912s-1.72.465-2.712 1.393c-.992.929-2.072 2.424-3.24 4.488-1.168 2.063-1.752 3.56-1.752 4.487 0 .385.128.576.385.576.928 0 2.583-1.416 4.967-4.248 2.384-2.832 3.576-4.759 3.576-5.784z"/><path d="M248.154 21.936c0 .416-.272 1.024-.815 1.823-.545.801-1.369 2.28-2.473 4.44s-1.656 3.521-1.656 4.08c0 .561.225.84.672.84.607 0 1.648-.703 3.121-2.112 1.471-1.407 2.823-3.159 4.056-5.256 1.231-2.096 1.976-3.208 2.231-3.336 1.376-.703 2.225-1.087 2.545-1.151.318-.064.631-.097.936-.097.304 0 .456.112.456.336 0 .225-.144.336-.433.336-.672 0-1.216.305-1.631.912-.769 1.089-2.929 5.873-6.48 14.353-.896 2.111-1.776 3.928-2.641 5.447-.863 1.52-2.016 3.032-3.455 4.536-2.592 2.72-5.377 4.08-8.353 4.08a7.772 7.772 0 0 1-3.601-.864c-1.951-1.024-2.928-2.768-2.928-5.231v-.816c0-.479.192-.72.576-.72.064 0 .096.031.096.096l-.096 1.2c0 1.44.456 2.552 1.368 3.336s2.017 1.176 3.312 1.176c1.297 0 2.553-.239 3.769-.72 2.72-1.185 5.032-3.064 6.937-5.64 1.902-2.576 3.654-5.721 5.256-9.433.768-1.888 1.584-4.111 2.447-6.672-1.504 2.049-2.88 3.681-4.128 4.896-1.888 1.824-3.681 2.735-5.376 2.735-.768 0-1.152-.304-1.152-.911 0-.769.625-2.4 1.873-4.896.287-.576.672-1.359 1.151-2.352s.808-1.648.983-1.969c.176-.319.265-.552.265-.695 0-.145-.048-.217-.144-.217-.225 0-.849.465-1.873 1.393-1.023.929-2.207 2.304-3.551 4.128-.192.288-.305.28-.336-.024-.033-.304.047-.552.239-.743 1.312-1.76 2.376-3.097 3.192-4.009s1.264-1.416 1.344-1.512.256-.264.527-.504.488-.408.648-.504c.641-.384 1.32-.576 2.04-.576s1.082.273 1.082.817zM270.714 27.264c.064.064.096.191.096.384 0 .191-.224.592-.672 1.2-2.848 3.775-5.488 5.663-7.92 5.663-.768 0-1.152-.304-1.152-.911 0-1.12.625-2.656 1.873-4.608a50.063 50.063 0 0 1-3.84 3.624c-1.44 1.232-2.785 1.848-4.033 1.848-.575 0-.863-.352-.863-1.056 0-.16.016-.271.048-.336.224-1.824.96-3.744 2.208-5.76 2.496-4.032 5.088-6.048 7.775-6.048h5.521c.16 0 .24.064.24.191 0 .257-.144.384-.433.384-.447 0-1.008.521-1.68 1.561s-1.56 2.64-2.664 4.8c-1.104 2.16-1.656 3.521-1.656 4.08 0 .561.225.84.672.84.736 0 1.76-.64 3.072-1.92a40.046 40.046 0 0 0 1.584-1.729c.352-.415.584-.688.696-.815s.487-.592 1.128-1.392zm-5.136-4.465c0-.607-.408-.912-1.224-.912-.816 0-1.721.465-2.713 1.393-.992.929-2.072 2.424-3.239 4.488-1.169 2.063-1.753 3.56-1.753 4.487 0 .385.129.576.385.576.928 0 2.584-1.416 4.968-4.248s3.576-4.759 3.576-5.784z"/></svg>