<svg xmlns="http://www.w3.org/2000/svg" width="44" height="54" viewBox="3 -2.125 44 54"><path d="M43 25c0-2.206-1.794-4-4-4s-4 1.794-4 4 1.794 4 4 4 4-1.794 4-4zM40 3a1 1 0 0 0-2 0v16.09c.326-.055.659-.09 1-.09s.674.035 1 .09V3zm0 27.91c-.326.055-.659.09-1 .09s-.674-.035-1-.09V47a1 1 0 1 0 2 0V30.91zM29 39c0-2.206-1.794-4-4-4s-4 1.794-4 4 1.794 4 4 4 4-1.794 4-4zM26 3a1 1 0 0 0-2 0v30.09c.326-.055.659-.09 1-.09s.674.035 1 .09V3zm0 41.91c-.326.055-.659.09-1 .09s-.674-.035-1-.09V47a1 1 0 1 0 2 0v-2.09zM15 14c0-2.206-1.794-4-4-4s-4 1.794-4 4 1.794 4 4 4 4-1.794 4-4zM12 3a1 1 0 1 0-2 0v5.09c.326-.055.658-.09 1-.09s.674.035 1 .09V3zm0 16.91c-.326.055-.658.09-1 .09s-.674-.035-1-.09V47a1 1 0 1 0 2 0V19.91z"/></svg>