<svg pointer-events="none" xmlns="http://www.w3.org/2000/svg" width="20.02" height="26.667" viewBox="38.139 34.814 20.02 26.667"><path d="M53.982 35.647v7.422c-1.439.374-2.511 1.671-2.511 3.226a3.34 3.34 0 0 0 2.511 3.226v11.126a.833.833 0 0 0 1.666 0V49.521c1.439-.374 2.51-1.671 2.51-3.226a3.341 3.341 0 0 0-2.51-3.226v-7.422a.833.833 0 0 0-1.666 0zm2.51 10.648c0 .925-.752 1.677-1.677 1.677s-1.677-.752-1.677-1.677c0-.924.752-1.677 1.677-1.677s1.677.753 1.677 1.677zm-7.51 14.352v-1.784c1.439-.374 2.51-1.671 2.51-3.226s-1.071-2.853-2.51-3.225V35.647a.833.833 0 0 0-1.666 0v16.766c-1.439.372-2.51 1.67-2.51 3.225s1.071 2.852 2.51 3.226v1.784a.833.833 0 1 0 1.666-.001zm-2.51-5.009c0-.925.752-1.677 1.677-1.677s1.677.752 1.677 1.678a1.678 1.678 0 0 1-3.354-.001zm-4.157 5.009V44.501a3.341 3.341 0 0 0 2.51-3.225 3.341 3.341 0 0 0-2.51-3.225v-2.404a.833.833 0 0 0-1.666 0v2.404a3.341 3.341 0 0 0-2.51 3.225 3.34 3.34 0 0 0 2.51 3.225v16.146a.833.833 0 0 0 1.666 0zm-2.509-19.371a1.678 1.678 0 0 1 3.353 0 1.677 1.677 0 0 1-3.353 0z"/></svg>